<?xml version="1.0" encoding="UTF-8" standalone="no"?>
<!DOCTYPE svg PUBLIC "-//W3C//DTD SVG 1.1//EN"
 "http://www.w3.org/Graphics/SVG/1.1/DTD/svg11.dtd">
<!-- Generated by graphviz version 2.40.1 (20161225.0304)
 -->
<!-- Title: dependencies Pages: 1 -->
<svg width="674pt" height="284pt"
 viewBox="0.00 0.00 674.00 284.00" xmlns="http://www.w3.org/2000/svg" xmlns:xlink="http://www.w3.org/1999/xlink">
<g id="graph0" class="graph" transform="scale(1 1) rotate(0) translate(4 280)">
<title>dependencies</title>
<polygon fill="#ffffff" stroke="transparent" points="-4,4 -4,-280 670,-280 670,4 -4,4"/>
<text text-anchor="start" x="312.0091" y="-42.4" font-family="sans-serif" font-weight="bold" font-size="14.00" fill="#000000">Legend</text>
<polygon fill="#ffffb3" stroke="transparent" points="99,-10 99,-30 119,-30 119,-10 99,-10"/>
<text text-anchor="start" x="122.629" y="-15.4" font-family="sans-serif" font-size="14.00" fill="#000000"> &#160;Declarations</text>
<polygon fill="#8dd3c7" stroke="transparent" points="212,-10 212,-30 232,-30 232,-10 212,-10"/>
<text text-anchor="start" x="235.7251" y="-15.4" font-family="sans-serif" font-size="14.00" fill="#000000"> &#160;Module</text>
<polygon fill="#80b1d3" stroke="transparent" points="298,-10 298,-30 318,-30 318,-10 298,-10"/>
<text text-anchor="start" x="321.7812" y="-15.4" font-family="sans-serif" font-size="14.00" fill="#000000"> &#160;Bootstrap</text>
<polygon fill="#fdb462" stroke="transparent" points="395,-10 395,-30 415,-30 415,-10 395,-10"/>
<text text-anchor="start" x="418.6732" y="-15.4" font-family="sans-serif" font-size="14.00" fill="#000000"> &#160;Providers</text>
<polygon fill="#fb8072" stroke="transparent" points="491,-10 491,-30 511,-30 511,-10 491,-10"/>
<text text-anchor="start" x="514.7258" y="-15.4" font-family="sans-serif" font-size="14.00" fill="#000000"> &#160;Exports</text>
<g id="clust1" class="cluster">
<title>cluster_AppModule</title>
<polygon fill="none" stroke="#000000" stroke-dasharray="1,5" points="8,-70 8,-268 658,-268 658,-70 8,-70"/>
</g>
<g id="clust2" class="cluster">
<title>cluster_AppModule_declarations</title>
<polygon fill="none" stroke="#000000" points="212,-78 212,-130 650,-130 650,-78 212,-78"/>
</g>
<g id="clust6" class="cluster">
<title>cluster_AppModule_imports</title>
<polygon fill="none" stroke="#000000" points="16,-78 16,-130 204,-130 204,-78 16,-78"/>
</g>
<g id="clust8" class="cluster">
<title>cluster_AppModule_bootstrap</title>
<polygon fill="none" stroke="#000000" points="241,-208 241,-260 365,-260 365,-208 241,-208"/>
</g>
<!-- AppComponent -->
<g id="node1" class="node">
<title>AppComponent</title>
<polygon fill="#ffffb3" stroke="#000000" points="641.9399,-122 536.0601,-122 536.0601,-86 641.9399,-86 641.9399,-122"/>
<text text-anchor="middle" x="589" y="-99.8" font-family="Times,serif" font-size="14.00" fill="#000000">AppComponent</text>
</g>
<!-- AppModule -->
<g id="node4" class="node">
<title>AppModule</title>
<polygon fill="#8dd3c7" stroke="#000000" points="344.6571,-187 341.6571,-191 320.6571,-191 317.6571,-187 261.3429,-187 261.3429,-151 344.6571,-151 344.6571,-187"/>
<text text-anchor="middle" x="303" y="-164.8" font-family="Times,serif" font-size="14.00" fill="#000000">AppModule</text>
</g>
<!-- AppComponent&#45;&gt;AppModule -->
<g id="edge1" class="edge">
<title>AppComponent&#45;&gt;AppModule</title>
<path fill="none" stroke="#000000" d="M589,-122.2843C589,-143.3211 589,-175 589,-175 589,-175 354.8931,-175 354.8931,-175"/>
<polygon fill="#000000" stroke="#000000" points="354.8932,-171.5001 344.8931,-175 354.8931,-178.5001 354.8932,-171.5001"/>
</g>
<!-- HomeComponent -->
<g id="node2" class="node">
<title>HomeComponent</title>
<polygon fill="#ffffb3" stroke="#000000" points="518.5451,-122 403.4549,-122 403.4549,-86 518.5451,-86 518.5451,-122"/>
<text text-anchor="middle" x="461" y="-99.8" font-family="Times,serif" font-size="14.00" fill="#000000">HomeComponent</text>
</g>
<!-- HomeComponent&#45;&gt;AppModule -->
<g id="edge2" class="edge">
<title>HomeComponent&#45;&gt;AppModule</title>
<path fill="none" stroke="#000000" d="M461,-122.0225C461,-139.3734 461,-163 461,-163 461,-163 354.9263,-163 354.9263,-163"/>
<polygon fill="#000000" stroke="#000000" points="354.9263,-159.5001 344.9263,-163 354.9262,-166.5001 354.9263,-159.5001"/>
</g>
<!-- PageNotFoundComponent -->
<g id="node3" class="node">
<title>PageNotFoundComponent</title>
<polygon fill="#ffffb3" stroke="#000000" points="385.8243,-122 220.1757,-122 220.1757,-86 385.8243,-86 385.8243,-122"/>
<text text-anchor="middle" x="303" y="-99.8" font-family="Times,serif" font-size="14.00" fill="#000000">PageNotFoundComponent</text>
</g>
<!-- PageNotFoundComponent&#45;&gt;AppModule -->
<g id="edge3" class="edge">
<title>PageNotFoundComponent&#45;&gt;AppModule</title>
<path fill="none" stroke="#000000" d="M303,-122.1061C303,-122.1061 303,-140.991 303,-140.991"/>
<polygon fill="#000000" stroke="#000000" points="299.5001,-140.9909 303,-150.991 306.5001,-140.991 299.5001,-140.9909"/>
</g>
<!-- AppComponent  -->
<g id="node7" class="node">
<title>AppComponent </title>
<polygon fill="#80b1d3" stroke="#000000" points="357.439,-252 248.561,-252 248.561,-216 357.439,-216 357.439,-252"/>
<text text-anchor="middle" x="303" y="-229.8" font-family="Times,serif" font-size="14.00" fill="#000000">AppComponent </text>
</g>
<!-- AppModule&#45;&gt;AppComponent  -->
<g id="edge6" class="edge">
<title>AppModule&#45;&gt;AppComponent </title>
<path fill="none" stroke="#000000" stroke-dasharray="1,5" d="M303,-187.1061C303,-187.1061 303,-205.991 303,-205.991"/>
<polygon fill="#000000" stroke="#000000" points="299.5001,-205.9909 303,-215.991 306.5001,-205.991 299.5001,-205.9909"/>
</g>
<!-- SharedModule -->
<g id="node5" class="node">
<title>SharedModule</title>
<polygon fill="#8dd3c7" stroke="#000000" points="196.4231,-122 193.4231,-126 172.4231,-126 169.4231,-122 97.5769,-122 97.5769,-86 196.4231,-86 196.4231,-122"/>
<text text-anchor="middle" x="147" y="-99.8" font-family="Times,serif" font-size="14.00" fill="#000000">SharedModule</text>
</g>
<!-- SharedModule&#45;&gt;AppModule -->
<g id="edge4" class="edge">
<title>SharedModule&#45;&gt;AppModule</title>
<path fill="none" stroke="#000000" d="M147,-122.0225C147,-139.3734 147,-163 147,-163 147,-163 251.1949,-163 251.1949,-163"/>
<polygon fill="#000000" stroke="#000000" points="251.1949,-166.5001 261.1949,-163 251.1948,-159.5001 251.1949,-166.5001"/>
</g>
<!-- routing -->
<g id="node6" class="node">
<title>routing</title>
<polygon fill="#8dd3c7" stroke="#000000" points="80.4435,-122 77.4435,-126 56.4435,-126 53.4435,-122 23.5565,-122 23.5565,-86 80.4435,-86 80.4435,-122"/>
<text text-anchor="middle" x="52" y="-99.8" font-family="Times,serif" font-size="14.00" fill="#000000">routing</text>
</g>
<!-- routing&#45;&gt;AppModule -->
<g id="edge5" class="edge">
<title>routing&#45;&gt;AppModule</title>
<path fill="none" stroke="#000000" d="M52,-122.2843C52,-143.3211 52,-175 52,-175 52,-175 251.2707,-175 251.2707,-175"/>
<polygon fill="#000000" stroke="#000000" points="251.2707,-178.5001 261.2707,-175 251.2707,-171.5001 251.2707,-178.5001"/>
</g>
</g>
</svg>
