<?xml version="1.0" encoding="UTF-8" standalone="no"?>
<!DOCTYPE svg PUBLIC "-//W3C//DTD SVG 1.1//EN"
 "http://www.w3.org/Graphics/SVG/1.1/DTD/svg11.dtd">
<!-- Generated by graphviz version 2.40.1 (20161225.0304)
 -->
<!-- Title: dependencies Pages: 1 -->
<svg width="674pt" height="360pt"
 viewBox="0.00 0.00 674.00 360.00" xmlns="http://www.w3.org/2000/svg" xmlns:xlink="http://www.w3.org/1999/xlink">
<g id="graph0" class="graph" transform="scale(1 1) rotate(0) translate(4 356)">
<title>dependencies</title>
<polygon fill="#ffffff" stroke="transparent" points="-4,4 -4,-356 670,-356 670,4 -4,4"/>
<text text-anchor="start" x="312.0091" y="-42.4" font-family="sans-serif" font-weight="bold" font-size="14.00" fill="#000000">Legend</text>
<polygon fill="#ffffb3" stroke="transparent" points="99,-10 99,-30 119,-30 119,-10 99,-10"/>
<text text-anchor="start" x="122.629" y="-15.4" font-family="sans-serif" font-size="14.00" fill="#000000"> &#160;Declarations</text>
<polygon fill="#8dd3c7" stroke="transparent" points="212,-10 212,-30 232,-30 232,-10 212,-10"/>
<text text-anchor="start" x="235.7251" y="-15.4" font-family="sans-serif" font-size="14.00" fill="#000000"> &#160;Module</text>
<polygon fill="#80b1d3" stroke="transparent" points="298,-10 298,-30 318,-30 318,-10 298,-10"/>
<text text-anchor="start" x="321.7812" y="-15.4" font-family="sans-serif" font-size="14.00" fill="#000000"> &#160;Bootstrap</text>
<polygon fill="#fdb462" stroke="transparent" points="395,-10 395,-30 415,-30 415,-10 395,-10"/>
<text text-anchor="start" x="418.6732" y="-15.4" font-family="sans-serif" font-size="14.00" fill="#000000"> &#160;Providers</text>
<polygon fill="#fb8072" stroke="transparent" points="491,-10 491,-30 511,-30 511,-10 491,-10"/>
<text text-anchor="start" x="514.7258" y="-15.4" font-family="sans-serif" font-size="14.00" fill="#000000"> &#160;Exports</text>
<g id="clust1" class="cluster">
<title>cluster_AppModule</title>
<polygon fill="none" stroke="#000000" stroke-dasharray="1,5" points="8,-146 8,-344 658,-344 658,-146 8,-146"/>
</g>
<g id="clust2" class="cluster">
<title>cluster_AppModule_declarations</title>
<polygon fill="none" stroke="#000000" points="212,-154 212,-206 650,-206 650,-154 212,-154"/>
</g>
<g id="clust6" class="cluster">
<title>cluster_AppModule_imports</title>
<polygon fill="none" stroke="#000000" points="16,-154 16,-206 204,-206 204,-154 16,-154"/>
</g>
<g id="clust8" class="cluster">
<title>cluster_AppModule_bootstrap</title>
<polygon fill="none" stroke="#000000" points="241,-284 241,-336 365,-336 365,-284 241,-284"/>
</g>
<g id="clust10" class="cluster">
<title>cluster_SharedModule</title>
<polygon fill="none" stroke="#000000" stroke-dasharray="1,5" points="58,-70 58,-138 236,-138 236,-70 58,-70"/>
</g>
<g id="clust15" class="cluster">
<title>cluster_SharedModule_providers</title>
<polygon fill="none" stroke="#000000" points="66,-78 66,-130 228,-130 228,-78 66,-78"/>
</g>
<!-- AppComponent -->
<g id="node1" class="node">
<title>AppComponent</title>
<polygon fill="#ffffb3" stroke="#000000" points="641.9399,-198 536.0601,-198 536.0601,-162 641.9399,-162 641.9399,-198"/>
<text text-anchor="middle" x="589" y="-175.8" font-family="Times,serif" font-size="14.00" fill="#000000">AppComponent</text>
</g>
<!-- AppModule -->
<g id="node4" class="node">
<title>AppModule</title>
<polygon fill="#8dd3c7" stroke="#000000" points="344.6571,-263 341.6571,-267 320.6571,-267 317.6571,-263 261.3429,-263 261.3429,-227 344.6571,-227 344.6571,-263"/>
<text text-anchor="middle" x="303" y="-240.8" font-family="Times,serif" font-size="14.00" fill="#000000">AppModule</text>
</g>
<!-- AppComponent&#45;&gt;AppModule -->
<g id="edge1" class="edge">
<title>AppComponent&#45;&gt;AppModule</title>
<path fill="none" stroke="#000000" d="M589,-198.2843C589,-219.3211 589,-251 589,-251 589,-251 354.8931,-251 354.8931,-251"/>
<polygon fill="#000000" stroke="#000000" points="354.8932,-247.5001 344.8931,-251 354.8931,-254.5001 354.8932,-247.5001"/>
</g>
<!-- HomeComponent -->
<g id="node2" class="node">
<title>HomeComponent</title>
<polygon fill="#ffffb3" stroke="#000000" points="518.5451,-198 403.4549,-198 403.4549,-162 518.5451,-162 518.5451,-198"/>
<text text-anchor="middle" x="461" y="-175.8" font-family="Times,serif" font-size="14.00" fill="#000000">HomeComponent</text>
</g>
<!-- HomeComponent&#45;&gt;AppModule -->
<g id="edge2" class="edge">
<title>HomeComponent&#45;&gt;AppModule</title>
<path fill="none" stroke="#000000" d="M461,-198.0225C461,-215.3734 461,-239 461,-239 461,-239 354.9263,-239 354.9263,-239"/>
<polygon fill="#000000" stroke="#000000" points="354.9263,-235.5001 344.9263,-239 354.9262,-242.5001 354.9263,-235.5001"/>
</g>
<!-- PageNotFoundComponent -->
<g id="node3" class="node">
<title>PageNotFoundComponent</title>
<polygon fill="#ffffb3" stroke="#000000" points="385.8243,-198 220.1757,-198 220.1757,-162 385.8243,-162 385.8243,-198"/>
<text text-anchor="middle" x="303" y="-175.8" font-family="Times,serif" font-size="14.00" fill="#000000">PageNotFoundComponent</text>
</g>
<!-- PageNotFoundComponent&#45;&gt;AppModule -->
<g id="edge3" class="edge">
<title>PageNotFoundComponent&#45;&gt;AppModule</title>
<path fill="none" stroke="#000000" d="M303,-198.1061C303,-198.1061 303,-216.991 303,-216.991"/>
<polygon fill="#000000" stroke="#000000" points="299.5001,-216.9909 303,-226.991 306.5001,-216.991 299.5001,-216.9909"/>
</g>
<!-- AppComponent  -->
<g id="node7" class="node">
<title>AppComponent </title>
<polygon fill="#80b1d3" stroke="#000000" points="357.439,-328 248.561,-328 248.561,-292 357.439,-292 357.439,-328"/>
<text text-anchor="middle" x="303" y="-305.8" font-family="Times,serif" font-size="14.00" fill="#000000">AppComponent </text>
</g>
<!-- AppModule&#45;&gt;AppComponent  -->
<g id="edge6" class="edge">
<title>AppModule&#45;&gt;AppComponent </title>
<path fill="none" stroke="#000000" stroke-dasharray="1,5" d="M303,-263.1061C303,-263.1061 303,-281.991 303,-281.991"/>
<polygon fill="#000000" stroke="#000000" points="299.5001,-281.9909 303,-291.991 306.5001,-281.991 299.5001,-281.9909"/>
</g>
<!-- SharedModule -->
<g id="node5" class="node">
<title>SharedModule</title>
<polygon fill="#8dd3c7" stroke="#000000" points="196.4231,-198 193.4231,-202 172.4231,-202 169.4231,-198 97.5769,-198 97.5769,-162 196.4231,-162 196.4231,-198"/>
<text text-anchor="middle" x="147" y="-175.8" font-family="Times,serif" font-size="14.00" fill="#000000">SharedModule</text>
</g>
<!-- SharedModule&#45;&gt;AppModule -->
<g id="edge4" class="edge">
<title>SharedModule&#45;&gt;AppModule</title>
<path fill="none" stroke="#000000" d="M147,-198.0225C147,-215.3734 147,-239 147,-239 147,-239 251.1949,-239 251.1949,-239"/>
<polygon fill="#000000" stroke="#000000" points="251.1949,-242.5001 261.1949,-239 251.1948,-235.5001 251.1949,-242.5001"/>
</g>
<!-- routing -->
<g id="node6" class="node">
<title>routing</title>
<polygon fill="#8dd3c7" stroke="#000000" points="80.4435,-198 77.4435,-202 56.4435,-202 53.4435,-198 23.5565,-198 23.5565,-162 80.4435,-162 80.4435,-198"/>
<text text-anchor="middle" x="52" y="-175.8" font-family="Times,serif" font-size="14.00" fill="#000000">routing</text>
</g>
<!-- routing&#45;&gt;AppModule -->
<g id="edge5" class="edge">
<title>routing&#45;&gt;AppModule</title>
<path fill="none" stroke="#000000" d="M52,-198.2843C52,-219.3211 52,-251 52,-251 52,-251 251.2707,-251 251.2707,-251"/>
<polygon fill="#000000" stroke="#000000" points="251.2707,-254.5001 261.2707,-251 251.2707,-247.5001 251.2707,-254.5001"/>
</g>
<!-- WeatherService -->
<g id="node8" class="node">
<title>WeatherService</title>
<ellipse fill="#fdb462" stroke="#000000" cx="147" cy="-104" rx="72.8889" ry="18"/>
<text text-anchor="middle" x="147" y="-99.8" font-family="Times,serif" font-size="14.00" fill="#000000">WeatherService</text>
</g>
<!-- WeatherService&#45;&gt;SharedModule -->
<g id="edge7" class="edge">
<title>WeatherService&#45;&gt;SharedModule</title>
<path fill="none" stroke="#000000" d="M147,-122.0109C147,-122.0109 147,-151.855 147,-151.855"/>
<polygon fill="#000000" stroke="#000000" points="143.5001,-151.8549 147,-161.855 150.5001,-151.855 143.5001,-151.8549"/>
</g>
</g>
</svg>
